# xmcd
#
# Track frame offsets: 
#        150
#        48584
#        67506
#        109829
#        127551
#        153998
#        180421
#        206380
#        219073
#        291338
#        312208
#        329396
#
# Disc length: 4510 seconds
#
# Revision: 0
# Processed by: cddbd v1.5.2PL0 Copyright (c) Steve Scherf et al.
# Submitted via: ExactAudioCopy v0.95a3
#
DISCID=99119c0c
DTITLE=Jimi Hendrix - Studio 69 [CD11)
DYEAR=2004
DGENRE=Blues
TTITLE0=Lord I Sing The Blues For Me An You
TTITLE1=Lover Man
TTITLE2=Untitled Instrumental Jam
TTITLE3=Valleys Of Neptune 1
TTITLE4=Valleys Of Neptune 2
TTITLE5=Valleys Of Neptune 3
TTITLE6=Valleys Of Neptune 4
TTITLE7=Valleys Of Neptune 5
TTITLE8=I'm A Man Early Stepping Stone 1
TTITLE9=Power Of Soul 1
TTITLE10=Power Of Soul 2
TTITLE11=Power Of Soul 3
EXTD=
EXTT0=
EXTT1=
EXTT2=
EXTT3=
EXTT4=
EXTT5=
EXTT6=
EXTT7=
EXTT8=
EXTT9=
EXTT10=
EXTT11=
PLAYORDER=
